#!OML:ASF I:\Actors\actors\Patient Classification 1\Patient 1\Session 1\Subject1.ASF
:FULLY-SPECIFIED
:DEGREES
272
root -2.00823 17.6225 7.12924 4.62296 11.5708 -5.21567
lowerback 6.8743 1.4233 2.41146
upperback -9.75098 2.44593 0.989308
thorax -14.5582 0.981103 -0.725916
lowerneck -9.97125 -5.97859 -5.5384
upperneck 18.6211 -8.94845 8.3257
head 8.02364 -3.8946 2.75754
rclavicle 1.27222e-014 -3.97569e-015
rhumerus -42.4025 39.3544 -110.269
rradius 82.7222
rwrist -25.5635
rhand 1.46245 -47.6606
rfingers 7.12502
rthumb 26.9904 -75.7525
lclavicle 1.27222e-014 -3.97569e-015
lhumerus -37.6876 -27.7947 103.01
lradius 68.0929
lwrist 24.8962
lhand -19.9861 2.58681
lfingers 7.12502
lthumb 6.35319 32.4715
rfemur -1.0213 14.3724 28.6978
rtibia 2.1335
rfoot -11.9581 -24.7985
rtoes 12.9943
lfemur -3.57485 -31.5883 -6.19499
ltibia 0.825593
lfoot -6.41058 27.7941
ltoes -17.4383
273
root -1.98636 17.6181 7.12412 4.60361 11.1976 -5.20941
lowerback 6.51532 1.336 2.37027
upperback -9.86877 2.31819 1.04552
thorax -14.4783 0.931054 -0.607198
lowerneck -10.0172 -5.7589 -5.21923
upperneck 19.1609 -8.66775 7.96911
head 8.15857 -3.75948 2.6184
rclavicle 1.29707e-014 3.55825e-014
rhumerus -43.1702 39.482 -110.834
rradius 83.3325
rwrist -25.3742
rhand -0.358829 -46.6959
rfingers 7.12502
rthumb 25.2466 -75.0456
lclavicle 1.29707e-014 3.55825e-014
lhumerus -38.0752 -28.9316 104.009
lradius 68.5943
lwrist 25.7357
lhand -20.2309 2.73593
lfingers 7.12502
lthumb 6.11689 32.6276
rfemur -1.0573 14.5104 28.6128
rtibia 2.27191
rfoot -12.0424 -24.6577
rtoes 12.4433
lfemur -3.00114 -31.8235 -6.58131
ltibia 0.570154
lfoot -7.09058 28.5588
ltoes -16.5156
274
root -1.95767 17.617 7.11757 4.44525 10.796 -5.28963
lowerback 6.44727 1.25531 2.72844
upperback -10.0071 2.24354 0.930476
thorax -14.5874 0.845809 -0.919776
lowerneck -9.99362 -5.56992 -4.82461
upperneck 19.642 -8.48832 7.83785
head 8.27833 -3.64886 2.53195
rclavicle 2.37548e-014 7.55382e-015
rhumerus -44.0143 39.3403 -111.604
rradius 83.982
rwrist -25.3211
rhand 0.537905 -47.2154
rfingers 7.12502
rthumb 26.1055 -75.4411
lclavicle 2.37548e-014 7.55382e-015
lhumerus -39.5469 -29.93 104.864
lradius 70.3515
lwrist 26.1775
lhand -20.2726 3.34582
lfingers 7.12502
lthumb 6.07667 33.2387
rfemur -1.02282 14.5703 28.6116
rtibia 2.49605
rfoot -12.1187 -24.4029
rtoes 11.7381
lfemur -2.25041 -32.0742 -7.02477
ltibia 0.329384
lfoot -7.47481 29.2438
ltoes -16.4533
275
root -1.92405 17.6123 7.1121 4.36589 10.4175 -5.37152
lowerback 6.29744 1.12451 3.19161
upperback -10.1422 2.10556 0.776838
thorax -14.6408 0.716524 -1.3199
lowerneck -9.98972 -5.31439 -4.51543
upperneck 20.0633 -8.25448 7.98104
head 8.39564 -3.49264 2.55709
rclavicle 2.60408e-014 -2.78299e-015
rhumerus -44.8355 39.2241 -112.416
rradius 84.6019
rwrist -25.338
rhand 5.5413 -50.2797
rfingers 7.12502
rthumb 30.8861 -77.7028
lclavicle 2.60408e-014 -2.78299e-015
lhumerus -41.828 -30.4035 105.56
lradius 73.2296
lwrist 26.1219
lhand -19.9251 4.53453
lfingers 7.12502
lthumb 6.41215 34.4175
rfemur -1.11374 14.6311 28.5767
rtibia 2.80538
rfoot -12.2505 -24.1699
rtoes 11.1688
lfemur -1.60679 -32.4828 -7.4543
ltibia 0.110106
lfoot -7.94287 30.0589
ltoes -16.3362
276
root -1.87832 17.6018 7.10741 4.39313 10.1672 -5.36854
lowerback 5.73142 0.950488 3.25622
upperback -10.1343 1.86502 0.908357
thorax -14.2829 0.613202 -1.15234
lowerneck -9.98683 -5.02175 -4.38395
upperneck 20.2968 -7.86177 7.8602
head 8.43512 -3.30396 2.54038
rclavicle 3.06625e-014 3.57812e-014
rhumerus -45.4688 39.4448 -112.599
rradius 85.1201
rwrist -25.3238
rhand 5.95589 -51.1979
rfingers 7.12502
rthumb 31.2813 -78.5454
lclavicle 3.06625e-014 3.57812e-014
lhumerus -41.9545 -30.945 106.479
lradius 72.9154
lwrist 26.4248
lhand -19.7133 4.47446
lfingers 7.12502
lthumb 6.6166 34.3511
rfemur -1.31688 14.3308 28.3363
rtibia 3.10998
rfoot -12.3888 -23.7171
rtoes 10.8706
lfemur -1.16209 -33.0305 -7.9439
ltibia -0.0732965
lfoot -8.50208 30.9158
ltoes -15.7138
277
root -1.82788 17.5903 7.10283 4.37289 9.89877 -5.41116
lowerback 5.0343 0.825948 3.05485
upperback -9.99807 1.675 1.27187
thorax -13.6998 0.58176 -0.592104
lowerneck -10.0678 -4.78539 -4.29859
upperneck 20.4475 -7.4643 7.44388
head 8.45268 -3.145 2.42977
rclavicle 1.47101e-014 6.75868e-015
rhumerus -46.0371 39.652 -112.297
rradius 85.6323
rwrist -25.258
rhand 6.50231 -51.8368
rfingers 7.12502
rthumb 31.8018 -79.0823
lclavicle 1.47101e-014 6.75868e-015
lhumerus -43.1952 -30.8449 107.547
lradius 74.5952
lwrist 26.3537
lhand -19.218 5.30669
lfingers 7.12502
lthumb 7.09468 35.1678
rfemur -1.47694 14.0025 28.1386
rtibia 3.40516
rfoot -12.4754 -23.2237
rtoes 10.4127
lfemur -0.685676 -33.6053 -8.38387
ltibia -0.311744
lfoot -8.75129 31.7732
ltoes -15.3908
278
root -1.77634 17.5805 7.09777 4.3191 9.61108 -5.50454
lowerback 4.65141 0.70186 3.03919
upperback -9.96441 1.51426 1.53378
thorax -13.4316 0.528965 -0.263619
lowerneck -10.1865 -4.56198 -4.04133
upperneck 20.6818 -7.11625 7.0002
head 8.50377 -2.99684 2.27513
rclavicle -3.0091e-014 -1.60022e-014
rhumerus -46.8701 39.4987 -112.28
rradius 86.1449
rwrist -25.0399
rhand 7.24602 -52.3867
rfingers 7.12502
rthumb 32.5098 -79.489
lclavicle -3.0091e-014 -1.60022e-014
lhumerus -44.1173 -31.137 108.563
lradius 75.3438
lwrist 26.8137
lhand -18.8351 6.093
lfingers 7.12502
lthumb 7.46436 35.9413
rfemur -1.63121 13.7897 28.0104
rtibia 3.75013
rfoot -12.618 -22.7812
rtoes 9.79282
lfemur -0.272731 -34.195 -8.72409
ltibia -0.491798
lfoot -8.7236 32.6646
ltoes -15.2299
279
root -1.7222 17.5723 7.09403 4.27149 9.34721 -5.61672
lowerback 4.76815 0.547666 3.36958
upperback -10.1799 1.35805 1.55057
thorax -13.7641 0.415083 -0.40425
lowerneck -10.1178 -4.31679 -3.649
upperneck 20.9466 -6.82396 6.79997
head 8.54113 -2.84479 2.17747
rclavicle -5.8393e-015 5.1684e-015
rhumerus -48.1315 38.9372 -112.862
rradius 86.5642
rwrist -24.5897
rhand 8.06323 -52.6704
rfingers 7.12502
rthumb 33.2872 -79.6096
lclavicle -5.8393e-015 5.1684e-015
lhumerus -44.6306 -31.6114 109.511
lradius 74.4356
lwrist 27.7646
lhand -18.7064 6.1602
lfingers 7.12502
lthumb 7.58854 36.0041
rfemur -1.76828 13.6713 27.9061
rtibia 4.09153
rfoot -12.8397 -22.4089
rtoes 9.34413
lfemur -0.0105199 -34.5934 -8.96953
ltibia -0.544007
lfoot -8.58671 33.3556
ltoes -15.0252
280
root -1.6653 17.5644 7.0915 4.24705 9.12335 -5.6794
lowerback 4.50317 0.420798 3.54086
upperback -10.1587 1.19923 1.63918
thorax -13.5769 0.330193 -0.374025
lowerneck -10.1383 -4.12721 -3.44149
upperneck 20.9602 -6.57207 6.67936
head 8.52321 -2.72123 2.12973
rclavicle 8.84592e-015 -2.39536e-014
rhumerus -48.981 38.6197 -113.02
rradius 86.9276
rwrist -24.3314
rhand 8.42355 -52.7759
rfingers 7.12502
rthumb 33.6296 -79.6411
lclavicle 8.84592e-015 -2.39536e-014
lhumerus -45.3104 -31.9312 110.368
lradius 74.4055
lwrist 28.7125
lhand -18.7184 6.46385
lfingers 7.12502
lthumb 7.57693 36.3081
rfemur -1.85724 13.6828 27.7532
rtibia 4.34001
rfoot -13.0038 -22.202
rtoes 9.11005
lfemur 0.0904088 -34.6447 -9.17721
ltibia -0.480549
lfoot -8.57202 33.6012
ltoes -14.7991
281
root -1.6078 17.5578 7.08961 4.24406 8.94233 -5.65452
lowerback 4.23291 0.305349 3.60446
upperback -10.1249 1.03927 1.70286
thorax -13.3723 0.254452 -0.312678
lowerneck -10.334 -4.01064 -3.20744
upperneck 21.1583 -6.41243 6.44481
head 8.60159 -2.64288 2.02642
rclavicle -1.14798e-014 -3.52843e-015
rhumerus -49.8115 38.2622 -113.127
rradius 87.2821
rwrist -24.3467
rhand 8.6259 -53.0142
rfingers 7.12502
rthumb 33.8219 -79.8373
lclavicle -1.14798e-014 -3.52843e-015
lhumerus -46.6429 -31.8409 111.184
lradius 75.3359
lwrist 29.2393
lhand -18.4427 7.07232
lfingers 7.12502
lthumb 7.84304 36.9068
rfemur -1.90145 13.8354 27.5173
rtibia 4.51039
rfoot -13.1049 -22.1679
rtoes 8.91645
lfemur 0.0500242 -34.3605 -9.39948
ltibia -0.3263
lfoot -8.63604 33.415
ltoes -14.6708
282
root -1.5506 17.554 7.08972 4.25512 8.75813 -5.56462
lowerback 3.9814 0.204035 3.54028
upperback -10.0997 0.883869 1.74914
thorax -13.19 0.192173 -0.201441
lowerneck -10.5231 -3.89107 -2.88717
upperneck 21.3633 -6.25974 6.18212
head 8.67893 -2.56392 1.89856
rclavicle -6.83322e-015 1.59028e-015
rhumerus -50.6401 37.8284 -113.198
rradius 87.5804
rwrist -24.4509
rhand 9.14685 -53.2655
rfingers 7.12502
rthumb 34.3167 -79.9784
lclavicle -6.83322e-015 1.59028e-015
lhumerus -48.5062 -31.263 111.889
lradius 77.1245
lwrist 29.2582
lhand -17.8131 8.0893
lfingers 7.12502
lthumb 8.45073 37.9002
rfemur -1.91095 14.1609 27.2296
rtibia 4.64452
rfoot -13.2579 -22.2741
rtoes 8.8936
lfemur -0.0349838 -33.9515 -9.68189
ltibia -0.121461
lfoot -8.60454 33.0828
ltoes -14.8318
283
root -1.49123 17.5536 7.0903 4.25382 8.52461 -5.49744
lowerback 3.7765 0.10903 3.50249
upperback -10.0617 0.742529 1.80076
thorax -13.0213 0.133661 -0.102686
lowerneck -10.6132 -3.74152 -2.59507
upperneck 21.3737 -6.06623 5.99861
head 8.67414 -2.46618 1.80771
rclavicle -2.28975e-014 2.5842e-015
rhumerus -51.4734 37.4003 -113.28
rradius 87.7725
rwrist -24.5239
rhand 9.92295 -53.3364
rfingers 7.12502
rthumb 35.0533 -79.88
lclavicle -2.28975e-014 2.5842e-015
lhumerus -48.7068 -31.6457 112.646
lradius 75.9656
lwrist 30.1188
lhand -17.7549 7.8131
lfingers 7.12502
lthumb 8.50689 37.6217
rfemur -1.90276 14.5378 26.9692
rtibia 4.76215
rfoot -13.4261 -22.3939
rtoes 8.98587
lfemur -0.0289285 -33.6545 -9.99893
ltibia 0.0426186
lfoot -8.59281 32.8753
ltoes -14.7829
284
root -1.42842 17.556 7.08742 4.28726 8.32174 -5.42319
lowerback 3.60856 0.0240569 3.51814
upperback -10.0485 0.622787 1.84417
thorax -12.9045 0.0785983 -0.0464579
lowerneck -10.526 -3.63015 -2.53438
upperneck 21.207 -5.91247 5.99664
head 8.59177 -2.39468 1.81472
rclavicle -1.30515e-014 -2.81078e-014
rhumerus -52.3019 36.9579 -113.313
rradius 87.8803
rwrist -24.5251
rhand 9.81103 -53.4768
rfingers 7.12502
rthumb 34.9471 -80.0452
lclavicle -1.30515e-014 -2.81078e-014
lhumerus -49.7093 -31.3506 113.29
lradius 76.2015
lwrist 30.3985
lhand -17.3808 7.90636
lfingers 7.12502
lthumb 8.8679 37.7
rfemur -1.95199 14.8887 26.6656
rtibia 4.86525
rfoot -13.4885 -22.5549
rtoes 8.74034
lfemur -0.0643095 -33.4506 -10.3229
ltibia 0.198281
lfoot -8.54568 32.7045
ltoes -14.6042
285
root -1.36091 17.5586 7.08461 4.33472 8.1208 -5.26681
lowerback 3.48068 -0.0347538 3.52503
upperback -10.0357 0.534778 1.84049
thorax -12.8117 0.0361397 -0.0418785
lowerneck -10.539 -3.56277 -2.53638
upperneck 21.1837 -5.81933 6.0066
head 8.58203 -2.35052 1.82831
rclavicle 8.36138e-015 -1.55797e-014
rhumerus -53.0173 36.4857 -113.251
rradius 87.9534
rwrist -24.5457
rhand 8.52672 -53.1469
rfingers 7.12502
rthumb 33.7277 -79.9907
lclavicle 8.36138e-015 -1.55797e-014
lhumerus -51.4928 -30.4503 113.791
lradius 77.8625
lwrist 30.0179
lhand -16.6479 8.85409
lfingers 7.12502
lthumb 9.57504 38.6165
rfemur -1.97995 15.2084 26.2442
rtibia 4.90398
rfoot -13.4091 -22.6919
rtoes 8.2407
lfemur -0.0295472 -33.4662 -10.8287
ltibia 0.329584
lfoot -8.65262 32.7667
ltoes -13.908
